<?xml version="1.0" encoding="utf-8"?>
<!-- Generator: Adobe Illustrator 23.0.3, SVG Export Plug-In . SVG Version: 6.00 Build 0)  -->
<svg version="1.1" id="Layer_1" xmlns="http://www.w3.org/2000/svg" xmlns:xlink="http://www.w3.org/1999/xlink" x="0px" y="0px"
	 viewBox="0 0 882.4 390.9" style="enable-background:new 0 0 882.4 390.9;" xml:space="preserve">
<g transform="translate(0.000000,682.000000) scale(0.100000,-0.100000)">
	<path fill="white" d="M1722,6810.5c-842-108-1516-730-1680-1549c-56-277-56-512,0-790c137-685,648-1255,1319-1469c355-114,781-120,1140-16
		c241,70,485,198,685,358c41,33,335,319,652,636l578,576l607-606c692-690,718-712,1014-853c453-217,994-246,1471-80
		c1018,354,1556,1455,1212,2479c-222,660-780,1148-1479,1291c-130,27-157,29-365,29c-240,0-325-10-517-61c-270-72-553-221-755-398
		c-46-40-330-321-633-624c-302-304-553-551-557-549c-4,1-265,259-580,573s-607,598-649,632c-290,232-630,375-1009,422
		C2077,6823.5,1821,6822.5,1722,6810.5z M6877,6238.5c118-61,116-238-4-296c-73-36-145-23-198,35c-43,46-56,95-40,152
		C6665,6241.5,6775,6291.5,6877,6238.5z M7493,6155.5c86-41,119-153,69-238c-45-77-138-106-215-66c-103,52-128,173-54,261
		C7342,6170.5,7424,6187.5,7493,6155.5z M2185,6086.5c167-32,327-97,468-191c46-31,144-113,217-182c328-313,563-505,911-741
		c83-56,149-105,148-107c-1-3-66-49-145-103c-321-217-602-444-887-716c-220-209-339-287-541-354c-132-44-241-61-390-61
		c-351,0-653,129-895,381c-318,332-424,795-283,1239c61,190,164,355,316,502c179,174,372,276,620,328
		C1837,6105.5,2070,6107.5,2185,6086.5z M6323,6076.5c85-36,125-115,102-200c-51-185-329-152-329,38c0,68,35,128,92,156
		C6239,6095.5,6274,6096.5,6323,6076.5z M7211,5778.5c130-73,103-268-43-306c-76-21-152,15-189,89c-29,56-29,96,0,151
		C7024,5796.5,7127,5826.5,7211,5778.5z M7975,5780.5c55-31,85-81,85-143c0-100-71-171-169-170c-64,1-104,23-139,77
		c-55,85-21,203,69,243C7866,5807.5,7933,5804.5,7975,5780.5z M6581,5732.5c102-47,133-157,72-250c-34-51-85-74-152-69
		c-65,5-111,37-136,92c-43,94-9,183,86,227c22,10,51,19,65,19S6559,5742.5,6581,5732.5z M5877,5648.5c139-74,107-284-47-313
		c-117-22-228,96-195,208C5668,5652.5,5778,5700.5,5877,5648.5z M7583,5392.5c41-30,73-89,73-137c0-31-25-92-48-117
		c-28-31-70-48-121-49c-60,0-101,21-138,69c-24,31-28,46-28,99c0,70,17,102,75,142C7447,5433.5,7530,5430.5,7583,5392.5z
		 M6864,5382.5c55-29,86-82,86-145c-2-86-46-145-125-166c-101-27-209,55-209,159C6616,5362.5,6747,5443.5,6864,5382.5z M8179,5387.5
		c67-27,113-112,98-178c-21-93-78-141-166-141c-113,0-187,93-164,205C7969,5373.5,8081,5428.5,8179,5387.5z M6138,5339.5
		c78-23,132-121,109-198c-33-111-149-162-245-107c-58,33-79,67-83,134c-5,75,23,127,86,160C6055,5354.5,6081,5356.5,6138,5339.5z
		 M5455,5313.5c79-59,98-167,43-241c-27-37-91-71-135-71c-52,0-111,32-142,77c-19,29-25,50-25,94c0,70,27,115,90,147
		C5339,5346.5,5414,5344.5,5455,5313.5z M5049,5008.5c69-45,93-158,49-229c-33-54-78-78-144-78c-166,0-231,203-97,303
		C4908,5041.5,4996,5043.5,5049,5008.5z M5748,5015.5c108-55,114-220,9-289c-143-95-323,71-238,219
		C5568,5031.5,5660,5059.5,5748,5015.5z M6456,5016.5c58-30,90-87,90-159c0-109-126-188-235-146c-39,15-83,65-95,109
		C6178,4963.5,6324,5082.5,6456,5016.5z M7191,5005.5c99-65,87-238-21-289c-113-54-244,26-244,150
		C6926,5000.5,7077,5080.5,7191,5005.5z M7905,5003.5c36-26,71-90,71-129c0-54-30-113-73-144c-85-62-212-26-251,70
		c-9,23-16,56-16,74c0,39,36,103,72,130C7760,5043.5,7852,5043.5,7905,5003.5z M5460,4697.5c47-35,68-78,68-136c0-75-34-125-105-155
		c-47-19-77-19-128,1c-62,26-99,82-99,154c0,69,26,113,85,148C5336,4740.5,5410,4736.5,5460,4697.5z M6149,4707.5
		c42-17,83-66,98-116c23-77-24-164-106-196c-139-53-270,90-211,229C5964,4704.5,6065,4743.5,6149,4707.5z M6831,4660.5
		c51-14,100-65,115-118c31-116-56-219-176-209c-90,8-144,62-152,152c-7,82,32,142,113,173C6770,4673.5,6783,4673.5,6831,4660.5z
		 M8203,4640.5c44-28,73-86,73-147c0-143-171-214-280-116c-71,65-73,171-3,241C8050,4674.5,8133,4683.5,8203,4640.5z M7568,4625.5
		c57-29,96-112,84-177c-27-144-213-188-302-71c-25,32-29,46-29,100c0,48,5,69,21,90C7399,4644.5,7486,4666.5,7568,4625.5z
		 M5872,4382.5c137-62,120-262-26-312c-115-41-246,84-211,201C5667,4379.5,5771,4428.5,5872,4382.5z M6619,4288.5
		c78-60,87-179,18-248c-73-73-169-73-242,0c-78,78-57,209,41,263C6487,4331.5,6572,4324.5,6619,4288.5z M7171,4260.5
		c143-39,168-232,40-307c-56-32-138-27-188,11c-104,79-76,249,48,292C7120,4273.5,7122,4273.5,7171,4260.5z M7977,4245.5
		c64-32,99-118,79-189c-23-83-91-130-177-123c-89,8-143,62-151,152C7717,4222.5,7852,4310.5,7977,4245.5z M6334,3967.5
		c92-48,123-163,67-247c-51-78-150-99-230-49c-86,53-101,196-29,262C6195,3980.5,6280,3995.5,6334,3967.5z M7493,3880.5
		c122-59,124-237,3-299c-128-65-277,53-240,190C7285,3879.5,7393,3929.5,7493,3880.5z M6877,3788.5c127-67,116-246-18-303
		c-158-67-303,134-190,263C6727,3814.5,6801,3828.5,6877,3788.5z"/>
</g>
</svg>
